<?xml version="1.0" standalone="no"?>
<!DOCTYPE svg PUBLIC "-//W3C//DTD SVG 20010904//EN"
 "http://www.w3.org/TR/2001/REC-SVG-20010904/DTD/svg10.dtd">
<svg version="1.0" xmlns="http://www.w3.org/2000/svg"
 width="512.000000pt" height="512.000000pt" viewBox="0 0 512.000000 512.000000"
 preserveAspectRatio="xMidYMid meet">
<metadata>
Created by potrace 1.16, written by Peter Selinger 2001-2019
</metadata>
<g transform="translate(0.000000,512.000000) scale(0.100000,-0.100000)"
fill="#000000" stroke="none">
<path d="M3112 4994 c-59 -29 -106 -85 -121 -143 -12 -44 -41 -296 -41 -348 0
-46 32 -118 68 -156 45 -48 99 -70 182 -75 68 -3 80 -1 130 25 86 45 110 89
160 293 45 184 46 219 9 291 -23 47 -92 106 -138 120 -20 5 -72 13 -116 15
-73 5 -85 3 -133 -22z m214 -159 c46 -30 47 -52 4 -217 -42 -164 -56 -188
-110 -188 -43 0 -77 16 -96 45 -15 24 -15 35 1 180 16 137 21 158 42 181 22
24 29 26 80 21 30 -3 66 -13 79 -22z"/>
<path d="M3995 4643 c-96 -21 -120 -41 -237 -195 -104 -138 -127 -185 -128
-252 0 -101 46 -179 138 -234 40 -23 58 -27 122 -27 100 0 134 21 276 167 130
135 149 167 148 263 0 90 -24 137 -103 204 -71 59 -155 88 -216 74z m112 -199
c81 -66 74 -91 -70 -239 -99 -102 -116 -115 -145 -115 -25 0 -43 9 -68 34 -54
54 -48 74 59 217 121 163 139 171 224 103z"/>
<path d="M4499 3920 c-56 -14 -309 -127 -347 -156 -47 -37 -82 -114 -82 -185
0 -146 89 -252 224 -266 41 -4 83 3 206 37 85 23 174 54 198 67 56 32 98 91
113 160 11 49 10 62 -9 129 -37 126 -96 191 -192 213 -52 12 -62 12 -111 1z
m85 -164 c28 -12 38 -25 56 -73 22 -57 22 -59 4 -93 -18 -34 -24 -36 -172 -79
-97 -27 -161 -41 -177 -37 -54 14 -84 112 -47 154 12 15 277 140 300 142 1 0
18 -6 36 -14z"/>
<path d="M1861 3788 c-170 -13 -181 -30 -132 -217 17 -68 30 -125 28 -128 -3
-2 -38 6 -78 17 -41 11 -108 23 -151 27 -73 6 -77 5 -102 -20 -54 -54 -17
-137 61 -137 96 -1 263 -57 339 -115 64 -49 144 -23 144 48 0 17 -20 106 -45
197 -24 90 -42 167 -39 170 12 12 205 2 279 -14 44 -10 118 -36 165 -58 70
-33 100 -56 170 -127 59 -59 96 -107 119 -154 36 -71 53 -87 95 -87 63 0 69
11 126 232 l44 166 40 -20 c154 -77 290 -208 355 -339 50 -102 71 -194 71
-316 0 -109 14 -133 77 -133 33 0 47 11 172 135 l136 134 27 -42 c150 -241
177 -484 78 -696 -17 -36 -42 -80 -56 -98 -28 -37 -32 -88 -8 -121 23 -33 74
-28 259 22 88 25 161 43 163 41 2 -2 3 -50 3 -108 -1 -93 -9 -159 -27 -219 -5
-17 -40 -18 -559 -18 l-554 0 -6 38 c-62 374 -373 642 -747 642 -169 0 -316
-47 -453 -145 -150 -107 -262 -284 -296 -467 l-12 -68 -519 0 c-413 0 -518 3
-512 13 49 86 157 183 265 238 58 29 69 43 69 84 0 62 -12 68 -232 125 l-166
44 25 50 c94 185 231 313 406 378 71 26 99 31 211 36 147 5 166 14 166 79 0
33 -11 47 -135 173 l-135 136 77 45 c43 25 100 56 128 69 61 30 80 63 64 109
-22 62 -68 66 -176 16 -79 -37 -219 -125 -265 -169 -22 -19 -28 -34 -28 -65 0
-22 6 -43 13 -48 6 -4 -162 -10 -374 -13 -363 -5 -388 -6 -408 -24 -21 -19
-21 -23 -21 -527 l0 -508 26 -20 c25 -20 40 -21 226 -21 l199 0 -30 -37 c-16
-21 -45 -65 -63 -98 l-34 -60 -144 -3 c-116 -2 -148 -6 -162 -19 -17 -15 -18
-60 -18 -835 0 -805 0 -818 20 -838 20 -20 33 -20 2120 -20 2087 0 2100 0
2120 20 26 26 26 80 1 111 l-19 24 -2046 3 -2046 2 0 170 0 170 2410 0 2410 0
0 -170 0 -170 -246 0 -246 0 -30 -30 c-25 -26 -29 -36 -24 -63 13 -67 14 -67
352 -67 291 0 305 1 324 20 20 20 20 33 20 1483 l0 1464 -21 19 c-20 18 -49
19 -616 24 l-594 5 -52 65 c-46 57 -58 65 -90 68 -35 3 -44 -2 -111 -67 -62
-61 -78 -71 -108 -71 -34 0 -35 1 -52 62 -44 158 -163 325 -316 440 -90 69
-281 163 -330 163 -63 0 -65 -3 -121 -213 l-22 -84 -71 70 c-105 103 -196 158
-326 200 -131 42 -261 54 -429 40z m-877 -847 c3 -5 -15 -12 -41 -16 -26 -4
-83 -20 -127 -36 -166 -60 -312 -179 -421 -343 -63 -95 -135 -247 -135 -286 0
-36 26 -68 63 -79 25 -7 10 -9 -70 -10 l-103 -1 0 390 0 390 414 0 c231 0 417
-4 420 -9z m3986 -829 l0 -839 -147 -46 c-336 -105 -432 -121 -728 -122 -132
0 -272 2 -311 5 -61 4 -75 2 -93 -14 -23 -21 -28 -74 -11 -106 17 -32 77 -41
315 -47 324 -8 504 16 805 108 74 23 143 44 153 46 16 5 17 -8 17 -166 l0
-171 -2410 0 -2410 0 0 88 0 89 153 6 c355 15 622 67 1077 210 478 151 653
178 1019 156 l194 -12 24 27 c39 46 26 104 -29 125 -50 19 -360 32 -510 21
-244 -17 -380 -47 -726 -156 -473 -149 -710 -197 -1050 -211 l-152 -6 0 281 0
282 2263 0 c2169 0 2264 1 2302 19 131 59 184 220 118 352 -31 60 -92 112
-151 129 -20 5 -100 10 -178 10 l-141 0 -11 68 c-12 73 -35 102 -80 102 -23 0
-87 -16 -223 -55 l-45 -13 23 82 c52 178 37 391 -42 579 -7 16 20 17 489 17
l496 0 0 -838z m-2455 180 c185 -73 325 -233 369 -421 l14 -61 -595 0 c-561 0
-594 1 -589 18 2 9 7 33 11 52 4 19 25 72 46 118 72 151 219 270 389 317 38
10 89 14 165 11 95 -2 121 -7 190 -34z m2161 -315 c35 -41 33 -95 -7 -133
l-30 -29 -151 -3 -151 -4 7 29 c3 15 9 61 13 101 l6 73 144 -3 c145 -3 145 -3
169 -31z"/>
<path d="M4148 1470 c-360 -20 -626 -73 -1068 -215 -245 -78 -407 -119 -551
-140 -121 -17 -418 -20 -548 -5 -67 7 -89 7 -111 -5 -46 -24 -54 -78 -17 -119
19 -22 35 -27 112 -36 135 -15 437 -12 572 5 157 21 322 61 588 145 370 116
488 146 720 179 126 19 416 40 538 41 60 0 87 24 87 78 0 79 -37 88 -322 72z"/>
</g>
</svg>
